<?xml version="1.0" encoding="UTF-8" standalone="no"?>
<!DOCTYPE svg PUBLIC "-//W3C//DTD SVG 1.1//EN"
 "http://www.w3.org/Graphics/SVG/1.1/DTD/svg11.dtd">
<!-- Generated by graphviz version 2.40.1 (20161225.0304)
 -->
<!-- Title: Tree Pages: 1 -->
<svg width="720pt" height="435pt"
 viewBox="0.00 0.00 720.00 435.09" xmlns="http://www.w3.org/2000/svg" xmlns:xlink="http://www.w3.org/1999/xlink">
<g id="graph0" class="graph" transform="scale(.9651 .9651) rotate(0) translate(4 446.8)">
<title>Tree</title>
<polygon fill="#ffffff" stroke="transparent" points="-4,4 -4,-446.8 742,-446.8 742,4 -4,4"/>
<!-- 0 -->
<g id="node1" class="node">
<title>0</title>
<polygon fill="#e58139" fill-opacity="0.039216" stroke="#000000" points="190.5,-173.9739 -.5,-173.9739 -.5,-105.9739 190.5,-105.9739 190.5,-173.9739"/>
<text text-anchor="start" x="7.5" y="-158.7739" font-family="Times,serif" font-size="14.00" fill="#000000">elapsed_time ≤ 17696.5</text>
<text text-anchor="start" x="49.5" y="-143.7739" font-family="Times,serif" font-size="14.00" fill="#000000">mse = 0.061</text>
<text text-anchor="start" x="41.5" y="-128.7739" font-family="Times,serif" font-size="14.00" fill="#000000">samples = 200</text>
<text text-anchor="start" x="45" y="-113.7739" font-family="Times,serif" font-size="14.00" fill="#000000">value = 1.065</text>
</g>
<!-- 1 -->
<g id="node2" class="node">
<title>1</title>
<polygon fill="#e58139" fill-opacity="0.019608" stroke="#000000" points="357.5,-259.9739 226.5,-259.9739 226.5,-191.9739 357.5,-191.9739 357.5,-259.9739"/>
<text text-anchor="start" x="234.5" y="-244.7739" font-family="Times,serif" font-size="14.00" fill="#000000">elev_low ≤ 42.4</text>
<text text-anchor="start" x="246.5" y="-229.7739" font-family="Times,serif" font-size="14.00" fill="#000000">mse = 0.044</text>
<text text-anchor="start" x="238.5" y="-214.7739" font-family="Times,serif" font-size="14.00" fill="#000000">samples = 196</text>
<text text-anchor="start" x="242" y="-199.7739" font-family="Times,serif" font-size="14.00" fill="#000000">value = 1.046</text>
</g>
<!-- 0&#45;&gt;1 -->
<g id="edge1" class="edge">
<title>0&#45;&gt;1</title>
<path fill="none" stroke="#000000" d="M173.1426,-174.0869C187.5945,-180.3959 202.6577,-186.9717 217.0133,-193.2386"/>
<polygon fill="#000000" stroke="#000000" points="215.7662,-196.5131 226.3313,-197.3063 218.5668,-190.0977 215.7662,-196.5131"/>
<text text-anchor="middle" x="203.0575" y="-202.7349" font-family="Times,serif" font-size="14.00" fill="#000000">True</text>
</g>
<!-- 6 -->
<g id="node7" class="node">
<title>6</title>
<polygon fill="#e58139" stroke="#000000" points="344.5,-83.4739 239.5,-83.4739 239.5,-30.4739 344.5,-30.4739 344.5,-83.4739"/>
<text text-anchor="start" x="255.5" y="-68.2739" font-family="Times,serif" font-size="14.00" fill="#000000">mse = 0.0</text>
<text text-anchor="start" x="247.5" y="-53.2739" font-family="Times,serif" font-size="14.00" fill="#000000">samples = 4</text>
<text text-anchor="start" x="251" y="-38.2739" font-family="Times,serif" font-size="14.00" fill="#000000">value = 2.0</text>
</g>
<!-- 0&#45;&gt;6 -->
<g id="edge6" class="edge">
<title>0&#45;&gt;6</title>
<path fill="none" stroke="#000000" d="M175.9803,-105.8553C194.0677,-98.2347 212.9695,-90.271 230.1392,-83.0371"/>
<polygon fill="#000000" stroke="#000000" points="231.627,-86.2083 239.4836,-79.1001 228.9091,-79.7574 231.627,-86.2083"/>
<text text-anchor="middle" x="216.3291" y="-65.973" font-family="Times,serif" font-size="14.00" fill="#000000">False</text>
</g>
<!-- 2 -->
<g id="node3" class="node">
<title>2</title>
<polygon fill="#e58139" fill-opacity="0.015686" stroke="#000000" points="578.5,-344.9739 393.5,-344.9739 393.5,-276.9739 578.5,-276.9739 578.5,-344.9739"/>
<text text-anchor="start" x="401.5" y="-329.7739" font-family="Times,serif" font-size="14.00" fill="#000000">average_speed ≤ 6.276</text>
<text text-anchor="start" x="440.5" y="-314.7739" font-family="Times,serif" font-size="14.00" fill="#000000">mse = 0.039</text>
<text text-anchor="start" x="432.5" y="-299.7739" font-family="Times,serif" font-size="14.00" fill="#000000">samples = 195</text>
<text text-anchor="start" x="436" y="-284.7739" font-family="Times,serif" font-size="14.00" fill="#000000">value = 1.041</text>
</g>
<!-- 1&#45;&gt;2 -->
<g id="edge2" class="edge">
<title>1&#45;&gt;2</title>
<path fill="none" stroke="#000000" d="M357.6796,-254.751C370.8979,-260.5426 384.9854,-266.715 398.8048,-272.7698"/>
<polygon fill="#000000" stroke="#000000" points="397.7512,-276.1294 408.3153,-276.9368 400.5605,-269.7178 397.7512,-276.1294"/>
</g>
<!-- 5 -->
<g id="node6" class="node">
<title>5</title>
<polygon fill="#e58139" stroke="#000000" points="538.5,-168.4739 433.5,-168.4739 433.5,-115.4739 538.5,-115.4739 538.5,-168.4739"/>
<text text-anchor="start" x="449.5" y="-153.2739" font-family="Times,serif" font-size="14.00" fill="#000000">mse = 0.0</text>
<text text-anchor="start" x="441.5" y="-138.2739" font-family="Times,serif" font-size="14.00" fill="#000000">samples = 1</text>
<text text-anchor="start" x="445" y="-123.2739" font-family="Times,serif" font-size="14.00" fill="#000000">value = 2.0</text>
</g>
<!-- 1&#45;&gt;5 -->
<g id="edge5" class="edge">
<title>1&#45;&gt;5</title>
<path fill="none" stroke="#000000" d="M357.6796,-197.5353C379.1284,-188.2482 402.866,-177.9701 424.0327,-168.8051"/>
<polygon fill="#000000" stroke="#000000" points="425.4589,-172.0017 433.2449,-164.8163 422.6775,-165.578 425.4589,-172.0017"/>
</g>
<!-- 3 -->
<g id="node4" class="node">
<title>3</title>
<polygon fill="transparent" stroke="#000000" points="737.5,-412.4739 614.5,-412.4739 614.5,-359.4739 737.5,-359.4739 737.5,-412.4739"/>
<text text-anchor="start" x="630.5" y="-397.2739" font-family="Times,serif" font-size="14.00" fill="#000000">mse = 0.026</text>
<text text-anchor="start" x="622.5" y="-382.2739" font-family="Times,serif" font-size="14.00" fill="#000000">samples = 185</text>
<text text-anchor="start" x="626" y="-367.2739" font-family="Times,serif" font-size="14.00" fill="#000000">value = 1.027</text>
</g>
<!-- 2&#45;&gt;3 -->
<g id="edge3" class="edge">
<title>2&#45;&gt;3</title>
<path fill="none" stroke="#000000" d="M572.3826,-345.0723C583.1904,-349.3385 594.1482,-353.664 604.6902,-357.8253"/>
<polygon fill="#000000" stroke="#000000" points="603.6519,-361.1782 614.2386,-361.5944 606.2221,-354.6671 603.6519,-361.1782"/>
</g>
<!-- 4 -->
<g id="node5" class="node">
<title>4</title>
<polygon fill="#e58139" fill-opacity="0.282353" stroke="#000000" points="733,-260.4739 619,-260.4739 619,-207.4739 733,-207.4739 733,-260.4739"/>
<text text-anchor="start" x="635" y="-245.2739" font-family="Times,serif" font-size="14.00" fill="#000000">mse = 0.21</text>
<text text-anchor="start" x="627" y="-230.2739" font-family="Times,serif" font-size="14.00" fill="#000000">samples = 10</text>
<text text-anchor="start" x="635" y="-215.2739" font-family="Times,serif" font-size="14.00" fill="#000000">value = 1.3</text>
</g>
<!-- 2&#45;&gt;4 -->
<g id="edge4" class="edge">
<title>2&#45;&gt;4</title>
<path fill="none" stroke="#000000" d="M570.1665,-276.8643C583.2969,-271.5431 596.7069,-266.1085 609.3757,-260.9743"/>
<polygon fill="#000000" stroke="#000000" points="610.9489,-264.1133 618.9022,-257.1136 608.3197,-257.6258 610.9489,-264.1133"/>
</g>
</g>
</svg>
